<svg width="12" height="12" fill="none" xmlns="http://www.w3.org/2000/svg"><path d="M11.683 7.983l-.832.498.094.966-.936.254-.17.956-.97-.007-.42.874-.932-.269-.641.728-.824-.51-.814.526-.656-.714-.926.288-.439-.865-.969.027-.19-.951-.94-.236.073-.968L.35 8.1l.33-.913-.68-.69.565-.789-.47-.849.756-.607-.223-.944.891-.38.04-.97.96-.125.3-.924.958.14.537-.809.886.393L5.934 0l.747.618.878-.411.553.797.956-.16.317.918.964.105.059.969.9.361-.205.95.768.59-.452.859.581.777-.667.704.35.906z" fill="#AA9261"/><path d="M5.165 8.373L3.13 6.336l.643-.644 1.371 1.373L8.06 3.96l.663.624-3.558 3.789z" fill="#EAEAEA"/></svg>