<svg width="269" height="38" fill="none" xmlns="http://www.w3.org/2000/svg"><path d="M126.865.234v24.363h-2.466V5.107l-9.57 16.393h-1.215l-9.582-16.289v19.386h-2.465V.234h2.126l10.587 18.065L124.761.234h2.104zm23.218 17.854h-13.578l-2.921 6.509h-2.676L142.044.234h2.535l11.136 24.363h-2.711l-2.921-6.509zm-.946-2.091L143.294 2.91l-5.842 13.087h11.685zm27.26 8.6l-5.574-7.83a17.53 17.53 0 01-1.951.106h-6.544v7.724h-2.57V.234h9.114c3.108 0 5.55.747 7.315 2.231 1.764 1.484 2.641 3.53 2.641 6.123 0 1.905-.479 3.506-1.449 4.826-.958 1.31-2.337 2.256-4.125 2.84l5.948 8.355h-2.805v-.012zm-2.056-11.522c1.273-1.063 1.916-2.558 1.916-4.487 0-1.974-.643-3.482-1.916-4.545-1.274-1.052-3.12-1.59-5.539-1.59h-6.474v12.223h6.474c2.419 0 4.265-.537 5.539-1.6zm18.135.071l-4.978 5.047v6.404h-2.571V.234h2.571v14.723L201.8.234h2.957l-10.552 11.03 11.276 13.333h-3.061l-9.944-11.451zm34.424 9.219v2.232h-17.224V.234h16.71v2.231h-14.127v8.66h12.596v2.196h-12.596v9.044H226.9zm10.786-19.9h-8.566V.234h19.701v2.231h-8.565V24.61h-2.57V2.465zm16.382 21.465c-1.659-.583-2.944-1.343-3.844-2.301l1.005-1.987c.876.877 2.056 1.601 3.517 2.139 1.46.55 2.968.818 4.522.818 2.185 0 3.821-.398 4.908-1.204 1.086-.806 1.636-1.834 1.636-3.12 0-.97-.293-1.752-.888-2.337-.596-.584-1.321-1.028-2.174-1.343-.853-.316-2.056-.655-3.587-1.029-1.835-.467-3.295-.911-4.382-1.344a7.35 7.35 0 01-2.804-1.963c-.783-.876-1.169-2.08-1.169-3.587 0-1.227.327-2.349.97-3.353.654-1.005 1.647-1.812 2.991-2.42C256.113.293 257.784 0 259.782 0c1.391 0 2.758.187 4.09.573 1.332.385 2.489.911 3.459 1.589l-.865 2.056a11.91 11.91 0 00-3.272-1.519 12.129 12.129 0 00-3.412-.502c-2.138 0-3.739.409-4.826 1.238-1.075.83-1.612 1.882-1.612 3.19 0 .97.292 1.753.888 2.35.596.595 1.332 1.04 2.232 1.355.888.315 2.091.654 3.599 1.028 1.787.444 3.236.876 4.335 1.309a7.16 7.16 0 012.804 1.951c.771.865 1.145 2.045 1.145 3.529 0 1.227-.327 2.349-.993 3.353-.666 1.005-1.671 1.812-3.05 2.407-1.367.596-3.05.889-5.048.889a15.208 15.208 0 01-5.188-.865zM90.64.164h5.644v24.398H90.64V.164zm-11.357 0v14.793L67.166.164H61.58v13.45c0 2.266-.467 3.902-1.402 4.954-.935 1.051-2.267 1.577-4.02 1.577-3.61 0-5.41-2.15-5.41-6.52V.164h-5.644v13.683c0 3.552.994 6.345 2.91 8.273 1.916 1.916 4.662 2.91 8.156 2.91 3.494 0 6.17-.994 8.156-2.91 1.917-1.916 2.91-4.662 2.91-8.273V8.729l.935 1.052 12.047 14.781h4.662V.164h-5.597zm-45.595 0h-30.1C1.6.164 0 1.776 0 3.693v30.159c0 1.975 1.6 3.587 3.587 3.587H33.7c1.974 0 3.587-1.6 3.587-3.587V3.692c-.012-1.916-1.613-3.528-3.6-3.528zm.911 18.614H18.287V35.09h-.748A15.544 15.544 0 001.975 19.526v-.748h16.312V2.466h.748A15.544 15.544 0 0034.599 18.03v.748zm13.064 11.684h-2.512v-.654h5.784v.654h-2.512v6.497h-.76v-6.497zm9.348 6.498l-1.636-2.303a4.56 4.56 0 01-.572.035h-1.917v2.267h-.76v-7.15h2.677c.911 0 1.624.221 2.15.653.514.433.77 1.04.77 1.8 0 .56-.14 1.028-.42 1.414-.28.386-.69.666-1.215.83l1.753 2.453h-.83zm-.596-3.39c.374-.315.561-.747.561-1.32 0-.584-.187-1.028-.56-1.332-.375-.315-.912-.467-1.625-.467h-1.905v3.587h1.905c.701.012 1.25-.152 1.624-.467zM64 35.043h-3.985l-.853 1.916h-.783l3.272-7.15h.748l3.271 7.15h-.794l-.877-1.916zm-.27-.608l-1.717-3.844-1.718 3.844h3.436zm3.108-4.627h2.91c.76 0 1.425.152 1.998.456a3.263 3.263 0 011.344 1.262c.315.537.479 1.157.479 1.858 0 .69-.164 1.308-.48 1.858a3.335 3.335 0 01-1.343 1.262c-.584.303-1.25.455-1.998.455h-2.91v-7.15zm2.875 6.497c.63 0 1.18-.129 1.647-.374.468-.245.83-.596 1.087-1.028.257-.444.385-.947.385-1.52 0-.572-.128-1.074-.385-1.518a2.637 2.637 0 00-1.087-1.029c-.467-.245-1.016-.373-1.647-.373h-2.115v5.842h2.115zm5.562-6.497h.76v7.151h-.76v-7.15zm9.067 0v7.151h-.619l-4.592-5.807v5.807h-.76v-7.15h.62l4.603 5.807v-5.808h.748zm7.362 3.576h.725v2.722a3.67 3.67 0 01-1.18.678 4.518 4.518 0 01-1.438.234c-.713 0-1.355-.152-1.928-.468a3.497 3.497 0 01-1.344-1.297 3.633 3.633 0 01-.49-1.87c0-.689.163-1.308.49-1.869a3.415 3.415 0 011.344-1.297c.573-.315 1.215-.467 1.94-.467.549 0 1.051.082 1.507.257a3.05 3.05 0 011.157.771l-.468.48c-.56-.562-1.285-.842-2.15-.842a3.17 3.17 0 00-1.565.385c-.468.258-.83.608-1.099 1.064a2.92 2.92 0 00-.397 1.519c0 .56.128 1.063.397 1.507.269.444.631.806 1.087 1.064.467.257.981.385 1.566.385.736 0 1.355-.187 1.87-.55v-2.406h-.024zm5.539-3.576h.76v7.151h-.76v-7.15zm3.529 6.952c-.491-.174-.865-.397-1.134-.677l.292-.584c.257.257.608.467 1.029.63a3.72 3.72 0 001.332.234c.642 0 1.121-.116 1.437-.35.315-.234.479-.538.479-.911 0-.281-.082-.515-.257-.678a1.711 1.711 0 00-.643-.398 13.377 13.377 0 00-1.051-.303 11 11 0 01-1.286-.398 2.125 2.125 0 01-.818-.572c-.233-.257-.338-.608-.338-1.052 0-.362.093-.69.28-.981.187-.293.479-.538.876-.713.398-.176.888-.269 1.473-.269.409 0 .806.059 1.203.164.386.116.725.268 1.017.467l-.257.608a3.41 3.41 0 00-.958-.444 3.814 3.814 0 00-1.005-.152c-.631 0-1.099.117-1.414.362-.316.245-.479.55-.479.935 0 .28.081.514.257.69.175.174.385.303.654.396.257.094.619.187 1.052.304a10.1 10.1 0 011.273.386c.328.128.596.315.818.572.222.257.339.596.339 1.04 0 .363-.093.69-.292.982-.199.292-.491.526-.9.701-.397.175-.899.257-1.484.257a4.138 4.138 0 01-1.495-.245zm8.962 0c-.491-.174-.865-.397-1.134-.677l.293-.584c.257.257.607.467 1.028.63a3.72 3.72 0 001.332.234c.643 0 1.122-.116 1.437-.35.316-.234.479-.538.479-.911 0-.281-.081-.515-.257-.678a1.707 1.707 0 00-.642-.398 13.553 13.553 0 00-1.052-.303c-.538-.14-.97-.27-1.285-.398a2.117 2.117 0 01-.818-.572c-.222-.257-.339-.608-.339-1.052 0-.362.093-.69.28-.981.187-.293.479-.538.877-.713.397-.176.888-.269 1.472-.269.409 0 .806.059 1.203.164.398.116.737.268 1.017.467l-.257.608a3.397 3.397 0 00-.958-.444 3.814 3.814 0 00-1.005-.152c-.631 0-1.099.117-1.414.362-.316.245-.479.55-.479.935 0 .28.082.514.257.69.175.174.386.303.654.396.257.094.62.187 1.052.304.526.129.946.257 1.274.386.327.128.596.315.818.572.222.257.338.596.338 1.04 0 .363-.093.69-.292.982-.198.292-.49.526-.888.701-.397.175-.899.257-1.484.257a4.121 4.121 0 01-1.507-.245zm5.831-6.952h.759v7.151h-.759v-7.15zm10.517 0v7.151h-.725v-5.725l-2.804 4.814h-.362l-2.805-4.78v5.691h-.724v-7.15h.619l3.108 5.304 3.073-5.305h.62zm7.151.654c.514.433.771 1.04.771 1.8s-.257 1.355-.771 1.788c-.514.432-1.227.654-2.15.654h-1.917v2.255h-.759v-7.15h2.676c.911 0 1.624.221 2.15.653zm-.55 3.109c.374-.316.561-.748.561-1.309 0-.584-.187-1.028-.561-1.332-.373-.316-.911-.468-1.624-.468h-1.904v3.576h1.904c.713 0 1.251-.152 1.624-.467zm2.957-3.763h.76v6.497h4.008v.654h-4.756v-7.15h-.012zm11.077 6.497v.654h-5.06v-7.15h4.908v.653h-4.148v2.548h3.692v.643h-3.692v2.652h4.3z" fill="#EAEAEA"/></svg>