<svg width="136" height="19" fill="none" xmlns="http://www.w3.org/2000/svg"><path d="M64.295.118v12.348h-1.25V2.588l-4.85 8.308h-.616l-4.856-8.255v9.825h-1.25V.118h1.078l5.366 9.156L63.229.118h1.066zm11.767 9.049H69.18l-1.48 3.299h-1.356L71.988.118h1.284l5.644 12.348h-1.374l-1.48-3.299zm-.48-1.06l-2.96-6.632-2.962 6.632h5.922zm13.816 4.359l-2.825-3.968c-.32.036-.645.053-.989.053h-3.316v3.915h-1.303V.118h4.619c1.575 0 2.813.38 3.707 1.132.895.752 1.339 1.788 1.339 3.103 0 .965-.243 1.776-.735 2.445-.485.664-1.184 1.143-2.09 1.44l3.014 4.234h-1.421v-.006zm-1.042-5.84c.645-.538.97-1.296.97-2.273 0-1.001-.325-1.765-.97-2.304-.646-.533-1.582-.805-2.807-.805h-3.281v6.194h3.28c1.226 0 2.162-.272 2.808-.811zm9.191.036l-2.522 2.559v3.245h-1.303V.118h1.303V7.58l7.248-7.462h1.498l-5.347 5.59 5.715 6.758h-1.552l-5.04-5.804zm17.447 4.673v1.13h-8.729V.119h8.468V1.25h-7.16v4.388h6.384V6.75h-6.384v4.584h7.421zM120.46 1.25h-4.341V.118h9.985V1.25h-4.341v11.222h-1.303V1.25zm8.303 10.878c-.841-.296-1.493-.68-1.949-1.166l.51-1.007c.444.444 1.042.811 1.782 1.084a6.46 6.46 0 002.292.414c1.108 0 1.937-.201 2.487-.61.551-.408.829-.93.829-1.58 0-.492-.148-.89-.45-1.185a3.066 3.066 0 00-1.101-.681c-.432-.16-1.042-.332-1.818-.522-.93-.236-1.67-.461-2.221-.68a3.73 3.73 0 01-1.421-.995c-.397-.445-.592-1.055-.592-1.819 0-.621.165-1.19.491-1.7.332-.508.835-.917 1.516-1.225.681-.308 1.528-.456 2.541-.456.704 0 1.397.095 2.072.29.676.196 1.262.462 1.753.806l-.438 1.042a6.034 6.034 0 00-1.658-.77 6.147 6.147 0 00-1.729-.255c-1.084 0-1.895.208-2.446.628-.545.42-.817.954-.817 1.617 0 .491.148.888.45 1.19.302.302.675.527 1.131.687.45.16 1.06.332 1.824.521.906.225 1.64.444 2.197.663a3.63 3.63 0 011.421.99c.391.438.581 1.036.581 1.788a3.01 3.01 0 01-.504 1.7c-.337.509-.847.918-1.545 1.22-.693.301-1.546.45-2.559.45a7.707 7.707 0 01-2.629-.439zM45.938.083h2.86v12.365h-2.86V.083zm-5.756 0V7.58L34.042.083H31.21v6.816c0 1.15-.236 1.978-.71 2.511-.474.533-1.15.8-2.037.8-1.83 0-2.742-1.09-2.742-3.305V.083h-2.86v6.935c0 1.8.503 3.215 1.474 4.192.971.972 2.363 1.475 4.133 1.475 1.771 0 3.127-.503 4.134-1.475.971-.97 1.475-2.362 1.475-4.192V4.424l.474.533 6.105 7.491h2.363V.083h-2.837zm-23.109 0H1.818C.811.083 0 .9 0 1.871v15.285c0 1.001.811 1.818 1.818 1.818H17.08a1.818 1.818 0 001.818-1.818V1.871C18.891.901 18.08.083 17.073.083zm.462 9.434H9.268v8.267h-.379a7.878 7.878 0 00-7.888-7.888v-.38h8.267V1.25h.379a7.878 7.878 0 007.888 7.888v.379zm6.62 5.922h-1.273v-.332h2.931v.332H24.54v3.292h-.385V15.44zm4.737 3.292l-.829-1.166c-.094.011-.19.017-.29.017h-.971v1.15h-.385v-3.625h1.356c.462 0 .823.113 1.09.332.26.219.39.527.39.912 0 .284-.07.52-.212.716-.143.196-.35.338-.616.42l.888 1.244h-.42zm-.302-1.717c.19-.16.285-.38.285-.67 0-.296-.095-.52-.285-.675-.19-.16-.462-.236-.823-.236h-.965v1.818h.965c.355.006.634-.077.823-.237zm3.844.746h-2.019l-.432.971h-.397l1.658-3.624h.38l1.657 3.624h-.402l-.445-.971zm-.136-.308l-.87-1.948-.87 1.948h1.74zm1.575-2.345h1.475c.385 0 .722.077 1.012.23.296.155.521.368.681.64.16.273.243.587.243.942 0 .35-.083.663-.243.942a1.69 1.69 0 01-.68.64c-.297.153-.634.23-1.013.23h-1.475v-3.624zM35.33 18.4c.32 0 .598-.066.835-.19s.42-.302.55-.521c.13-.225.196-.48.196-.77 0-.29-.065-.545-.195-.77a1.336 1.336 0 00-.551-.52 1.772 1.772 0 00-.835-.19h-1.072v2.96h1.072zm2.818-3.293h.385v3.624h-.385v-3.624zm4.596 0v3.624h-.314l-2.327-2.943v2.943h-.385v-3.624h.314l2.333 2.943v-2.943h.379zm3.732 1.812h.367v1.38c-.172.148-.367.26-.598.343a2.29 2.29 0 01-.729.119c-.361 0-.687-.077-.977-.237a1.773 1.773 0 01-.68-.658 1.84 1.84 0 01-.25-.947c0-.35.083-.663.25-.948.165-.278.39-.503.68-.657.29-.16.616-.237.983-.237.279 0 .533.042.764.13.231.09.426.22.586.391l-.236.243c-.285-.284-.652-.426-1.09-.426-.296 0-.557.065-.794.195s-.42.308-.556.539a1.48 1.48 0 00-.202.77c0 .284.065.539.202.764.136.225.32.409.55.539.237.13.498.195.794.195.373 0 .687-.095.947-.278v-1.22h-.011zm2.806-1.812h.385v3.624h-.385v-3.624zm1.788 3.523c-.248-.088-.438-.2-.574-.343l.148-.296c.13.13.308.237.521.32.22.083.444.118.675.118.326 0 .569-.06.729-.178a.552.552 0 00.243-.462.45.45 0 00-.13-.343.867.867 0 00-.326-.201 6.742 6.742 0 00-.533-.154 5.562 5.562 0 01-.652-.202 1.075 1.075 0 01-.414-.29c-.119-.13-.172-.308-.172-.533 0-.183.047-.35.142-.497a.983.983 0 01.444-.362c.202-.088.45-.136.746-.136.208 0 .409.03.61.083.196.06.367.136.516.237l-.13.308a1.724 1.724 0 00-.486-.225 1.932 1.932 0 00-.51-.077c-.32 0-.556.06-.716.184a.573.573 0 00-.243.473c0 .143.041.26.13.35a.845.845 0 00.332.201c.13.047.314.095.533.154.266.065.48.13.645.195.166.066.302.16.415.29.113.131.172.303.172.528 0 .183-.048.35-.148.497a1.01 1.01 0 01-.456.356c-.202.088-.456.13-.752.13a2.1 2.1 0 01-.758-.125zm4.542 0c-.248-.088-.438-.2-.574-.343l.148-.296c.13.13.308.237.521.32.22.083.444.118.675.118.326 0 .569-.06.729-.178a.552.552 0 00.243-.462.451.451 0 00-.13-.343.867.867 0 00-.326-.201 6.742 6.742 0 00-.533-.154 5.562 5.562 0 01-.652-.202 1.075 1.075 0 01-.414-.29c-.113-.13-.172-.308-.172-.533 0-.183.047-.35.142-.497a.983.983 0 01.444-.362c.201-.088.45-.136.746-.136.208 0 .409.03.61.083.202.06.373.136.516.237l-.13.308a1.724 1.724 0 00-.486-.225 1.932 1.932 0 00-.51-.077c-.32 0-.556.06-.716.184a.573.573 0 00-.243.473c0 .143.041.26.13.35a.845.845 0 00.332.201c.13.047.314.095.533.154.266.065.48.13.645.195.166.066.302.16.415.29.112.131.172.303.172.528 0 .183-.048.35-.148.497-.101.148-.25.267-.45.356-.202.088-.456.13-.752.13a2.09 2.09 0 01-.765-.125zm2.956-3.523h.385v3.624h-.385v-3.624zm5.33 0v3.624h-.367V15.83l-1.421 2.44h-.184l-1.421-2.422v2.884h-.367v-3.624h.314l1.575 2.689 1.557-2.69h.314zm3.624.332c.26.219.39.527.39.912 0 .384-.13.687-.39.906-.26.219-.622.331-1.09.331h-.97v1.143h-.386v-3.624h1.356c.462 0 .823.113 1.09.332zm-.278 1.575c.19-.16.284-.38.284-.663 0-.296-.095-.522-.284-.675-.19-.16-.462-.237-.823-.237h-.966v1.812h.966c.36 0 .633-.077.823-.237zm1.498-1.907h.385V18.4h2.031v.331h-2.41v-3.624h-.006zm5.613 3.293v.331h-2.564v-3.624h2.487v.332h-2.102v1.29h1.871v.326h-1.871V18.4h2.18z" fill="#353535"/></svg>