<svg width="63" height="64" fill="none" xmlns="http://www.w3.org/2000/svg"><path d="M14.153 0c1.825.37 3.648.741 5.473 1.11.1.02.204.03.302.055.607.154.942.593.85 1.104-.096.533-.534.838-1.164.733-.99-.167-1.968-.402-2.957-.566-1.252-.207-2.511-.55-3.762-.523-2.887.064-4.965 1.563-6.384 4.217 14.517 1.582 28.95 3.157 43.42 4.735v-1.84c-1.485-.297-2.965-.598-4.448-.89L23.771 3.847c-.1-.02-.2-.048-.3-.075-.603-.159-.919-.595-.812-1.119.109-.53.576-.818 1.18-.703 1.67.322 3.337.655 5.006.984 7.137 1.41 14.272 2.827 21.411 4.22.212.042.518-.068.692-.215 1.932-1.646 3.846-3.316 5.765-4.979 1.23-1.067 2.527-.628 2.803.975.852 4.951 1.407 9.933 1.374 14.966-.026 4.072-.427 8.103-1.571 12.03-.222.762-.8 1.102-1.367.785-.523-.292-.526-.751-.416-1.296.416-2.033.878-4.064 1.17-6.116.476-3.373.468-6.775.177-10.162-.262-3.045-.696-6.074-1.056-9.111-.014-.12-.055-.237-.098-.413-.133.085-.235.136-.32.209-1.765 1.524-3.532 3.046-5.285 4.585-.161.142-.308.406-.31.614-.014 9.81-.01 19.621-.01 29.43 0 .06.022.116.078.403.86-.945 1.702-1.73 2.373-2.643.718-.978 1.248-2.097 1.923-3.11.188-.281.605-.558.915-.557.27.004.596.36.785.64.104.152.038.497-.059.705-1.415 2.985-3.36 5.511-6.175 7.276-.377.236-.747.45-1.2.197-.476-.265-.494-.713-.492-1.187.003-8.873.003-17.746.003-26.619v-.806l-9.856-1.07v3.252c-.004 1.697-.822 2.527-2.494 2.53h-1.238c1.431 11.237 2.854 22.392 4.284 33.631.367 0 .709-.008 1.05.002.984.026 1.515.553 1.535 1.56.021 1.061.006 2.123.006 3.187v.763c.541 0 1.025-.004 1.508 0 1.327.01 1.99.686 1.998 2.049.006 1.083.005 2.165.008 3.249 0 .04.016.08.044.21h14.842c.205 0 .416-.02.613.025.447.104.725.403.74.875.016.503-.258.825-.73.945-.194.049-.408.029-.612.029-20.1.001-40.199 0-60.298.01-.576 0-1.051-.1-1.358-.633v-.625c.427-.786 1.169-.64 1.85-.616.387.014.575-.1.698-.494.695-2.24 1.407-4.477 2.144-6.702.127-.386.031-.583-.243-.842a5.285 5.285 0 01-.07-7.672c.495-.484.999-.528 1.41-.122.393.387.347.923-.086 1.443-.276.33-.57.666-.758 1.048-.712 1.453-.251 3.233 1.04 4.178 1.323.97 3.07.851 4.279-.346 1.642-1.63 3.254-3.292 4.878-4.942.957-.972 1.932-1.927 2.864-2.922 1.284-1.373 1.251-3.418-.04-4.724-1.292-1.307-3.294-1.32-4.65-.023-.389.37-.758.761-1.135 1.144-1.204 1.222-2.404 2.447-3.612 3.665-.518.52-1.044.562-1.454.142-.383-.393-.347-.952.122-1.435a236.76 236.76 0 013.265-3.31c.3-.298.438-.597.436-1.033-.011-8.83-.008-17.662-.008-26.493V12h-.65c-1.629-.008-2.389-.791-2.392-2.468V8.168C6.9 8.063 6.005 7.97 5.11 7.87c-.86-.096-1.212-.733-.819-1.51.31-.609.641-1.208.985-1.799C6.302 2.802 7.732 1.494 9.605.743c.79-.317 1.636-.5 2.455-.743h2.093zm-1.354 37.962c2.08-.968 3.481-1.041 5.033-.297 3.226 1.548 3.967 5.823 1.43 8.457-2.308 2.398-4.667 4.744-6.987 7.128-.164.17-.319.525-.257.722.801 2.598 1.64 5.186 2.481 7.77.048.146.213.353.326.356.996.029 1.994.017 3.037.017 0-1.26-.015-2.443.005-3.627.02-1.16.72-1.856 1.854-1.877.526-.01 1.054-.001 1.65-.001v-.743c0-1.084-.015-2.166.008-3.25.02-.964.557-1.487 1.51-1.517.344-.01.688-.002 1.07-.002 1.433-11.234 2.855-22.4 4.285-33.631h-1.029c-1.974 0-2.703-.741-2.703-2.753V9.98l-8.733-.947c.018.939.111 1.89-.668 2.38-.656.412-1.478.547-2.31.834-.002 8.436-.002 17.05-.002 25.715zm32.063 24.136v-3.575H19.75v3.575h25.11zm-3.497-9.09h-18.1v3.552h18.1v-3.552zM25.82 51.093c1.284 0 2.471.008 3.657-.008.17-.002.348-.109.506-.197 2.108-1.157 4.214-2.32 6.318-3.483.147-.08.28-.186.492-.326l-9.958-3.922-1.015 7.936zm.534-40.906c0 1.615.027 3.129-.013 4.642-.016.614.193.778.776.774 3.422-.023 6.845-.011 10.266-.011.165 0 .352.048.485-.019.153-.075.364-.25.367-.385.028-1.22.016-2.443.016-3.709l-11.897-1.292zM10.346 54.882c-1.236.604-2.504.761-3.839.404l-2.176 6.81h8.324c-.77-2.4-1.524-4.761-2.309-7.214zm27.74-9.307c-.322-2.535-.63-4.95-.945-7.44-2.838 1.24-5.6 2.447-8.504 3.718l9.45 3.722zm-2.527-8.791l-7.45-3.644c-.315 2.482-.616 4.84-.928 7.305l8.378-3.661zm1.222-1.483l-.92-7.171-6.397 3.586 7.317 3.585zm-7.397-12.156c-.298 2.341-.58 4.579-.885 6.967l6.19-3.475c-1.81-1.19-3.505-2.308-5.305-3.492zm6.072 1.759l-.908-7.103-4.216 3.73c1.733 1.142 3.38 2.226 5.124 3.373zm2.987 23.46l-4.858 2.684h5.202a1106.5 1106.5 0 01-.344-2.685zM9.732 8.366c0 .446.02.836-.005 1.225-.027.408.126.55.53.54.88-.024 1.761-.007 2.643-.007 1.142 0 1.144 0 .995-1.19-.002-.019-.019-.035-.061-.112l-4.102-.456zm22.187 9.27l-.06-.128c-.468 0-.936-.02-1.403.013-.137.01-.357.154-.378.267-.094.493-.129.997-.203 1.656l2.044-1.808z" fill="#fff"/><path d="M56.556 7.873c.2.175.561.35.661.624.099.272.051.763-.134.952-.678.688-1.421 1.316-2.18 1.912-.385.302-.83.207-1.158-.167-.31-.353-.373-.82-.05-1.136.736-.718 1.538-1.365 2.324-2.028.098-.084.268-.082.537-.157zm-3.554 21.612c0-.165-.01-.332.002-.497.04-.581.406-.97.906-.972.475-.002.87.362.915.903a7.1 7.1 0 01-.005 1.241c-.052.561-.42.877-.932.865-.513-.013-.835-.342-.88-.917-.016-.205-.003-.414-.003-.62-.001-.003-.001-.003-.003-.003zM5.615 50.083c.001-1.398 1.08-2.488 2.458-2.486a2.465 2.465 0 012.46 2.493c-.004 1.369-1.127 2.51-2.468 2.507-1.35-.001-2.454-1.133-2.45-2.514zm3.158.123c-.002-.095-.005-.188-.006-.283-.244-.149-.497-.425-.729-.408-.204.015-.559.394-.53.551.045.242.346.578.568.605.212.025.464-.296.697-.465zm8.98-7.488c.01 1.39-1.073 2.514-2.431 2.524-1.347.01-2.476-1.113-2.491-2.482-.017-1.364 1.1-2.512 2.45-2.518 1.374-.007 2.464 1.083 2.472 2.476zm-2.277-.688l-.288-.012c-.167.237-.486.493-.462.707.027.232.347.539.589.596.146.033.526-.333.546-.545.024-.233-.243-.496-.385-.746zm-4.258 2.752c.307.165.546.245.722.4.338.298.654.627.955.964.385.432.373.965.002 1.334-.357.354-.862.37-1.266.003-.364-.33-.753-.66-1.018-1.068-.163-.25-.224-.688-.12-.962.102-.272.464-.444.725-.671zM32.302 12.71c.697 0 1.394-.015 2.092.005.606.017.956.362.966.901.01.535-.335.939-.927.95-1.414.029-2.83.029-4.244 0-.595-.011-.94-.407-.935-.943.005-.54.352-.891.958-.908.696-.02 1.393-.005 2.09-.005z" fill="#fff"/></svg>