<svg width="64" height="63" fill="none" xmlns="http://www.w3.org/2000/svg"><path d="M63.24 63H0V.748C.336.166.846 0 1.512 0c20.33.012 40.659.01 60.989.01 1.149 0 1.49.337 1.49 1.466 0 20.012-.001 40.023.01 60.035-.001.656-.17 1.16-.76 1.489zM2.145 60.857h59.68V2.15H2.145v58.706z" fill="#fff"/><path d="M59.733 31.5v20.48c0 1.177-.229 1.438-1.39 1.599-2.3.319-3.6 1.6-3.923 3.867-.16 1.123-.433 1.361-1.57 1.361H11.118c-1.1 0-1.387-.25-1.539-1.323-.33-2.334-1.622-3.594-4.015-3.918-1.04-.142-1.305-.439-1.305-1.486-.002-13.714-.002-27.428 0-41.142 0-1.072.257-1.351 1.359-1.502 2.34-.322 3.63-1.594 3.96-3.904.153-1.08.437-1.33 1.532-1.33h41.795c1.06 0 1.359.262 1.504 1.293.332 2.371 1.62 3.627 4.05 3.954.996.133 1.273.442 1.273 1.451.002 6.865.002 13.734.002 20.6zm-2.147-20.01c-2.86-.663-4.598-2.397-5.261-5.171H11.66C11 9.127 9.226 10.85 6.416 11.492v40.032c2.848.66 4.586 2.394 5.249 5.168H52.33c.66-2.807 2.435-4.531 5.256-5.176V11.49z" fill="#fff"/><path d="M31.988 50.41H18.683c-1.317 0-1.613-.294-1.615-1.596-.001-1.106-.006-2.214.002-3.32.008-1.017.367-1.392 1.379-1.394 9.037-.005 18.073-.005 27.11 0 .984 0 1.353.377 1.363 1.348.012 1.169.008 2.337.001 3.506-.005 1.122-.347 1.456-1.504 1.456-4.478.002-8.955 0-13.43 0zm-12.751-2.145h25.516V46.24H19.237v2.025zm20.198-20.982H24.56v-2.048h2.051v-5.289h-.931c-.51.002-.886-.208-1.07-.688-.185-.487-.015-.888.366-1.207.84-.701 1.69-1.393 2.538-2.089 1.199-.984 2.394-1.97 3.598-2.95.636-.516 1.112-.53 1.73-.026 2.034 1.66 4.062 3.328 6.092 4.995.417.343.65.754.434 1.295-.202.506-.618.687-1.145.67a8.385 8.385 0 00-.5.002c-.1.002-.2.013-.343.023v5.235h2.053c.002.726.002 1.372.002 2.077zm-8.549-2.102v-5.187h-2.051v5.187h2.051zm2.219-.015h2.05v-5.18h-2.05v5.18zm-1.11-10.142c-1.137.933-2.222 1.826-3.377 2.776h6.76l-3.383-2.776zm3.178 19.637c-.48 0-.854-.006-1.225.002-.476.01-.86.046-1.113-.564-.294-.703-1.166-.64-1.785.099.22.17.438.343.66.508.898.664 1.797 1.324 2.695 1.988.77.57.935 1.054.658 1.97-.227.755-.65 1.413-1.365 1.756-.553.265-.715.607-.638 1.153.017.115-.027.236-.045.388h-1.983c-.034-.048-.082-.083-.079-.112.1-.746-.203-1.19-.883-1.593-.858-.508-1.235-1.387-1.25-2.462.636 0 1.217-.018 1.793.013.132.007.307.164.37.294.438.896 1.267 1 1.947.161-.25-.195-.498-.399-.755-.59-.864-.64-1.732-1.275-2.597-1.914-.751-.556-.923-1.026-.67-1.914.223-.779.65-1.454 1.388-1.812.547-.267.71-.612.632-1.154-.016-.114.022-.235.04-.39h1.987c.033.046.08.08.077.11-.082.735.187 1.195.88 1.595.864.501 1.236 1.387 1.261 2.468zm-12.743 1.07h4.192v2.019H22.43v-2.02zm14.957-.004h4.18v2.015h-4.18v-2.015z" fill="#fff"/></svg>