<svg width="61" height="36" fill="none" xmlns="http://www.w3.org/2000/svg"><path d="M39.182 34.235c-.614-1.992-1.207-3.918-1.804-5.843-.271-.875-.565-1.742-.812-2.624-.092-.328-.246-.418-.57-.416-3.669.01-7.34.001-11.01.02-.173 0-.46.154-.504.297-.887 2.817-1.746 5.642-2.609 8.466-.005.017.008.04.02.098.64 0 1.288-.008 1.937.002.65.01 1.012.323 1.012.855 0 .523-.371.872-1.007.876-2.16.011-4.32.005-6.48.005H1.376c-1.246 0-1.545-.407-1.177-1.592 1.004-3.24 2.01-6.48 3.013-9.72.29-.93.447-1.046 1.425-1.046 1.531 0 3.063-.036 4.593.016.668.023.964-.153 1.163-.83.866-2.954 1.808-5.888 2.721-8.829.266-.855.436-.98 1.344-.98 1.635-.002 3.272-.022 4.907.012.485.01.682-.142.82-.597.909-3.008 1.847-6.007 2.777-9.01.276-.889.453-1.02 1.383-1.021 4.11 0 8.221-.002 12.33 0 .896 0 1.09.14 1.352.983.935 3.022 1.876 6.04 2.793 9.069.128.426.307.585.774.576 1.635-.032 3.272-.013 4.906-.011.957 0 1.115.114 1.39 1.004.94 3.02 1.89 6.037 2.804 9.066.135.448.334.572.782.565 1.678-.026 3.355.006 5.033-.018.676-.01 1.03.26 1.226.9 1.024 3.364 2.079 6.72 3.115 10.08.288.934-.059 1.384-1.064 1.384-4.928.003-9.856.002-14.786.002-2.496 0-4.99 0-7.486-.002-.209 0-.426.017-.626-.028-.49-.107-.78-.41-.731-.932.046-.486.355-.752.833-.769.71-.024 1.42-.008 2.193-.008zm-19.736-.021c-.9-2.9-1.768-5.723-2.674-8.534-.05-.157-.399-.309-.61-.31-3.588-.021-7.173-.01-10.76-.035-.475-.003-.638.165-.764.588-.783 2.59-1.596 5.17-2.396 7.755-.051.167-.073.342-.112.536h17.316zm39.395-.007c.007-.06.027-.106.015-.142-.86-2.805-1.717-5.611-2.602-8.41-.045-.14-.332-.294-.508-.294-3.671-.014-7.342-.003-11.011-.01-.327 0-.477.094-.569.417-.299 1.04-.636 2.069-.956 3.104l-1.653 5.337c5.805-.002 11.545-.002 17.285-.002zm-46.888-10.63h17.324c-.06-.233-.103-.433-.164-.627-.794-2.563-1.599-5.123-2.376-7.693-.122-.405-.286-.544-.726-.54-3.606.02-7.212.011-10.818.013-.164 0-.33.02-.509.03l-2.731 8.817zm19.768.002h17.324l-2.733-8.815c-.133-.018-.194-.033-.256-.033-3.732-.001-7.463.005-11.195-.014-.393-.002-.49.18-.582.48-.795 2.584-1.597 5.167-2.396 7.752-.059.195-.101.395-.162.63zm7.455-10.613c-.899-2.904-1.77-5.747-2.677-8.58-.046-.141-.383-.27-.587-.27-3.606-.017-7.215-.005-10.822-.021-.409-.002-.573.125-.69.514-.775 2.57-1.579 5.131-2.374 7.696-.064.207-.125.415-.199.661h17.349zm-8.755 8.317l.154.008 2.023-6.53h-4.197a6543.19 6543.19 0 002.02 6.522zm-11.895 4.085l2.106 6.787 2.104-6.787h-4.21zm19.743.01l2.1 6.767 2.098-6.767H38.27zM3.571 9.618c.12.034.243.062.36.103 1.305.442 2.611.881 3.91 1.335.605.211.865.649.709 1.124-.17.517-.65.72-1.292.506-1.306-.436-2.607-.892-3.91-1.34-.503-.174-.814-.54-.633-1.044.112-.312.473-.534.723-.797.046.036.09.074.133.113zm49.616 3.272c-.25-.255-.575-.464-.711-.758-.19-.414.034-.824.442-.973 1.453-.53 2.918-1.028 4.392-1.497.432-.137.853.106.932.524.057.307-.076.885-.278.967-1.526.617-3.09 1.14-4.777 1.737zM13.476.007c.135.133.48.326.587.609a97.83 97.83 0 011.416 4.052c.176.532-.079 1.027-.56 1.146-.53.13-.9-.095-1.078-.6-.475-1.35-.951-2.7-1.4-4.058-.2-.607.245-1.18 1.035-1.15zM48.632.87c-.044.159-.08.32-.133.477a580.846 580.846 0 01-1.277 3.706c-.225.643-.655.92-1.156.76-.528-.166-.712-.659-.482-1.335.434-1.276.87-2.551 1.318-3.823.163-.462.518-.777 1.004-.61.317.107.556.45.828.686a5.825 5.825 0 00-.102.14zM10.024 8.224c-.322-.196-.58-.297-.764-.475a141.4 141.4 0 01-2.665-2.645c-.426-.431-.444-.903-.092-1.274.353-.372.892-.357 1.33.07.896.874 1.803 1.74 2.646 2.662.209.227.303.685.235.992-.05.25-.425.43-.69.67zm44.826-3.84c-.197.315-.302.571-.483.754-.861.88-1.733 1.747-2.616 2.604-.462.449-.95.467-1.328.091-.376-.375-.345-.857.112-1.317.88-.888 1.748-1.793 2.679-2.629.228-.205.701-.289 1.008-.214.245.06.41.448.628.71z" fill="#fff"/><path d="M30.488 34.235c.44 0 .88-.02 1.32.005.481.028.784.305.821.784.043.519-.258.878-.749.91-.919.056-1.844.055-2.762.003-.491-.028-.797-.38-.76-.902.038-.514.36-.78.872-.8.418-.016.837-.003 1.256-.003l.002.003z" fill="#fff"/></svg>