<svg width="63" height="58" fill="none" xmlns="http://www.w3.org/2000/svg"><path d="M46.085 55.703h1.362v-.927c0-11.997 0-23.993.002-35.988 0-.31-.005-.623.026-.932.12-1.209 1.029-2.099 2.227-2.107 3.082-.02 6.163-.02 9.246-.002 1.229.009 2.177.905 2.241 2.156.063 1.196.041 2.398.017 3.597-.014.637-.43 1.035-.976 1.031-.546-.003-.948-.402-.967-1.043a65.817 65.817 0 01-.006-3.066c.01-.514-.176-.698-.692-.694-2.754.02-5.508.008-8.262.01-.88 0-.886.001-.886.88V55.69h9.835v-.858c0-9.552 0-19.105.002-28.659 0-.287-.009-.582.049-.861.102-.498.445-.766.937-.765.49.002.832.272.931.772.054.279.05.574.05.861l.001 28.592v.958c.253 0 .463-.015.672.003.569.05.958.454.963.982.005.53-.383.948-.943 1.004-.196.02-.393.006-.59.006H1.978c-.218 0-.44.02-.654-.013-.545-.085-.879-.42-.879-.985s.332-.898.878-.987c.192-.03.393-.013.59-.013h11.923c.014-.278.037-.511.037-.745.002-4.555.002-9.108.002-13.663 0-.92-.003-.92-.912-.922h-8c-.92 0-.922.002-.922.977V52.97c0 .222.01.446-.01.666-.054.633-.449 1.03-.994 1.017-.52-.012-.896-.397-.953-.992-.017-.177-.01-.355-.01-.532 0-3.977-.002-7.953 0-11.93.001-1.947.846-2.802 2.755-2.802 2.799 0 5.595-.002 8.394 0 1.725.002 2.617.902 2.62 2.672.007 4.598.002 9.196.004 13.794v.822h1.362V23.84c0-1.915.84-2.773 2.71-2.773 2.798-.002 5.595-.002 8.393 0 1.768.002 2.667.908 2.667 2.698.002 10.33.002 20.66.002 30.99v.916h1.337V30.537c0-1.936.855-2.805 2.758-2.806 2.82 0 5.639-.004 8.459.001 1.648.002 2.552.919 2.552 2.6.003 8.175.001 16.35.001 24.526-.003.265-.003.527-.003.845zm-17.1.008c.01-.209.022-.36.022-.511.002-10.462-.003-20.924.012-31.388 0-.598-.214-.756-.77-.751-2.733.021-5.464.01-8.197.01-.878 0-.88.001-.88.871v31.769h9.814zm15.104 0c.013-.169.027-.276.027-.382.002-8.309-.003-16.615.01-24.924.002-.539-.195-.68-.695-.677-2.754.018-5.508.008-8.262.008-.885 0-.887.002-.887.877v25.096c3.316.002 6.527.002 9.807.002z" fill="#fff"/><path d="M27.147 11.411c-1.257 1.541-2.724 2.05-4.546 1.363-.151-.057-.467.125-.608.285-2.59 2.919-5.165 5.852-7.743 8.783l-2.381 2.706c.677 1.057.882 2.18.493 3.37a3.593 3.593 0 01-4.476 2.334c-1.85-.571-2.94-2.595-2.419-4.492.52-1.888 2.406-3.035 4.279-2.58.361.088.613.1.904-.231a2444.17 2444.17 0 019.869-11.229c.286-.324.39-.573.21-1.038-.772-2.007.355-4.235 2.373-4.802a3.538 3.538 0 014.484 2.833c.105.61.37.893.884 1.139 2.647 1.26 5.278 2.556 7.904 3.835 2.231-1.676 3.44-1.721 5.48-.17l9.235-7.634c-.12-.553-.283-1.04-.326-1.538A3.591 3.591 0 0153.028.667a3.563 3.563 0 014.13 1.135 3.73 3.73 0 01.098 4.405c-.92 1.309-2.577 1.885-4.064 1.314-.534-.205-.854-.115-1.269.232-2.865 2.4-5.75 4.78-8.64 7.15-.351.288-.512.564-.497 1.048.064 2.079-1.505 3.748-3.499 3.785-2.029.037-3.64-1.581-3.702-3.688-.006-.22-.115-.558-.274-.636-2.702-1.346-5.418-2.662-8.164-4zM24.08 7.746c-.891 0-1.619.738-1.625 1.647-.007.915.706 1.664 1.595 1.678.91.013 1.681-.762 1.673-1.683-.007-.894-.756-1.642-1.643-1.642zm15.11 9.992c.891.005 1.627-.727 1.644-1.635.016-.937-.728-1.703-1.647-1.693-.882.01-1.623.771-1.622 1.666 0 .894.746 1.657 1.625 1.662zM55.96 4.086c.009-.908-.704-1.656-1.6-1.673-.892-.016-1.63.705-1.653 1.617-.024.943.712 1.714 1.629 1.708.894-.005 1.613-.737 1.623-1.652zM10.58 26.744c.009-.909-.707-1.655-1.601-1.67-.893-.015-1.629.708-1.65 1.62-.021.941.715 1.713 1.632 1.704.893-.008 1.611-.74 1.62-1.654z" fill="#fff"/></svg>