<svg width="60" height="61" fill="none" xmlns="http://www.w3.org/2000/svg"><path d="M60 35.41h-4.135c-.708 2.078-1.313 4.085-2.078 6.025-.773 1.958-1.888 3.736-3.209 5.434l-1.51-1.203c2.295-3.048 3.845-6.407 4.615-10.214h-3.356v-3.906h-2.86c-1.379 9.762-6.86 15.325-16.503 16.76-.004.026-.024.12-.024.217-.004.851-.002 1.704-.002 2.664h3.864v3.435c3.808-.793 7.159-2.4 10.208-4.803l1.195 1.533c-3.385 2.717-7.174 4.438-11.386 5.284v4.362h-9.672c0-1.24-.021-2.468.01-3.694.014-.5-.11-.708-.63-.816-3.865-.819-7.36-2.467-10.496-4.908-.076-.058-.147-.124-.271-.231.195-.254.382-.499.57-.74.194-.25.387-.496.616-.788 3.02 2.386 6.373 3.995 10.178 4.799v-3.428h3.864v-2.893c-9.62-1.398-15.09-6.972-16.503-16.77H9.65v3.887H6.27c.778 3.874 2.358 7.28 4.723 10.382L9.49 47.016c-2.675-3.436-4.363-7.291-5.2-11.572H.002v-9.819h4.276c.839-4.272 2.521-8.13 5.202-11.596l1.39 1.111c-.955 1.68-1.954 3.289-2.806 4.973-.857 1.696-1.412 3.517-1.784 5.47h3.36v3.931h2.849c1.377-9.772 6.85-15.344 16.496-16.775V9.855h-3.823V6.43c-1.94.37-3.749.937-5.431 1.818-1.659.868-3.24 1.885-4.894 2.857L13.743 9.7c3.385-2.729 7.19-4.45 11.428-5.303V0h9.617v4.398c4.267.865 8.05 2.583 11.422 5.295-.426.538-.811 1.025-1.207 1.522-3.057-2.406-6.402-4.012-10.216-4.797v3.449h-3.81v2.948c8.451.458 15.914 7.583 16.427 16.694h2.918v-3.93h3.416c-.292-1.041-.525-2.003-.832-2.938-.88-2.674-2.188-5.118-3.927-7.381l1.502-1.214c1.35 1.69 2.477 3.482 3.265 5.45.79 1.973 1.402 4.018 2.127 6.133h4.132C60 28.893 60 32.15 60 35.409zm-14.537-4.87c.017-8.658-6.916-15.73-15.452-15.763-8.512-.031-15.475 7.01-15.52 15.694-.044 8.67 6.935 15.788 15.481 15.793 8.522.004 15.473-7.053 15.491-15.724zM32.855 7.85V2.018h-5.747v5.831h5.747zM1.935 33.443h5.723v-5.852H1.936v5.852zm50.341.009h5.743V27.6h-5.743v5.852zm-19.411 19.77h-5.76v5.796h5.789c0-1.828 0-3.607-.002-5.389-.002-.131-.019-.266-.027-.407zM8.612 8.817H6.78V6.943h1.833v1.874z" fill="#fff"/><path d="M10.651 10.858h1.835v1.876h-1.835v-1.876zm5.713 5.838H14.52v-1.884h1.844v1.884zM14.529 44.35h1.847v1.882h-1.847v-1.881zm29.061-.003h1.844v1.884h-1.843v-1.884zm-32.95 5.809v-1.86h1.848v1.86h-1.849zm36.82-1.876h1.83v1.892h-1.83V48.28zM6.765 54.092v-1.856h1.847v1.856H6.765zm44.56.007v-1.871h1.849v1.87h-1.849zm.007-47.175h1.832v1.893h-1.832V6.924zm-3.886 5.822v-1.859h1.86v1.86h-1.86zm-3.861 2.051h1.834v1.895h-1.834v-1.895zM33.561 30.498c2.738 2.802.708 7.39-3.584 6.946v1.878h-1.925v-1.89H25.18v-13.8h2.833v-1.91h1.954v1.895c1.873-.086 3.489.352 4.387 2.142.88 1.754.472 3.34-.793 4.74zm-6.466-.95c1.011 0 1.947.01 2.882-.004.486-.007.983.002 1.453-.097.848-.178 1.443-.987 1.455-1.859.01-.877-.62-1.838-1.47-1.899-1.428-.1-2.867-.027-4.32-.027v3.885zm-.002 5.855c1.43 0 2.832.055 4.227-.021.85-.045 1.513-.925 1.562-1.828.05-.9-.572-1.877-1.47-1.946-1.426-.11-2.866-.029-4.32-.029v3.824z" fill="#fff"/><path d="M38.76 20.098l-1.223 1.447c-2.489-2.063-5.326-3.061-8.522-2.788-3.183.272-5.81 1.702-7.913 4.144-2.765 3.213-4.433 9.78.015 15.327l-1.366 1.202c-3.798-4-5.136-12.272.239-18.222 5.546-6.135 14.187-5.351 18.77-1.11zM21.195 40.947c.39-.465.783-.927 1.216-1.443 2.944 2.394 6.262 3.336 9.968 2.565 2.57-.535 4.69-1.885 6.43-3.884 2.794-3.207 4.508-9.706.027-15.37l1.363-1.202c3.85 4.047 4.95 12.089.063 17.856-5.294 6.25-14.06 6.073-19.067 1.478z" fill="#fff"/></svg>