<svg width="256" height="36" fill="none" xmlns="http://www.w3.org/2000/svg"><path d="M121.312.222v23.184h-2.343V4.86l-9.094 15.6h-1.154l-9.106-15.5v18.448h-2.343V.222h2.021l10.06 17.191 9.961-17.19h1.998zm22.064 16.991h-12.903l-2.776 6.194h-2.542L135.737.222h2.409l10.582 23.184h-2.576l-2.776-6.193zm-.899-1.99l-5.552-12.454-5.552 12.454h11.104zm25.904 8.184l-5.296-7.45c-.6.066-1.211.1-1.855.1h-6.218v7.35h-2.443V.222h8.661c2.954 0 5.275.712 6.951 2.124 1.677 1.412 2.51 3.358 2.51 5.827 0 1.812-.455 3.336-1.377 4.592-.91 1.245-2.221 2.146-3.92 2.702l5.652 7.95h-2.665v-.01zm-1.954-10.964c1.21-1.012 1.821-2.435 1.821-4.27 0-1.88-.611-3.314-1.821-4.326-1.21-1-2.965-1.512-5.263-1.512h-6.152v11.631h6.152c2.298 0 4.053-.511 5.263-1.523zm17.233.067l-4.73 4.803v6.094h-2.443V.222h2.443v14.01L192.521.223h2.809L185.304 10.72l10.715 12.688h-2.909l-9.45-10.898zm32.712 8.773v2.123h-16.367V.223h15.879v2.124h-13.425v8.24h11.97v2.09h-11.97v8.607h13.913zm10.249-18.937h-8.139V.222h18.721v2.124h-8.139v21.072h-2.443V2.346zm15.568 20.427c-1.577-.556-2.798-1.279-3.653-2.19l.955-1.891c.833.834 1.954 1.523 3.342 2.035 1.388.522 2.82.778 4.297.778 2.077 0 3.631-.378 4.664-1.145s1.554-1.746 1.554-2.97c0-.922-.277-1.667-.843-2.223-.567-.556-1.255-.979-2.066-1.279-.81-.3-1.954-.622-3.409-.978-1.743-.445-3.131-.868-4.164-1.279a7 7 0 01-2.665-1.868c-.743-.834-1.11-1.98-1.11-3.414 0-1.167.311-2.235.922-3.191.622-.956 1.565-1.724 2.842-2.302C244.132.278 245.72 0 247.619 0c1.321 0 2.62.178 3.886.545 1.266.367 2.365.867 3.287 1.512l-.822 1.957a11.31 11.31 0 00-3.109-1.445 11.505 11.505 0 00-3.242-.479c-2.032 0-3.553.39-4.586 1.18-1.022.789-1.532 1.79-1.532 3.035 0 .923.277 1.668.844 2.235.566.567 1.265.99 2.12 1.29.844.3 1.988.622 3.42.978 1.699.423 3.076.834 4.12 1.246a6.804 6.804 0 012.665 1.857c.733.822 1.088 1.945 1.088 3.358 0 1.167-.311 2.235-.944 3.19-.633.957-1.588 1.724-2.898 2.292-1.299.567-2.898.845-4.797.845a14.432 14.432 0 01-4.93-.823zM86.89.156h5.363v23.217H86.89V.156zm-10.793 0v14.077L64.583.156h-5.308v12.798c0 2.157-.444 3.714-1.332 4.715-.889 1-2.155 1.501-3.82 1.501-3.431 0-5.141-2.046-5.141-6.205V.155h-5.364v13.022c0 3.38.944 6.038 2.765 7.872 1.821 1.824 4.43 2.77 7.75 2.77 3.32 0 5.864-.946 7.751-2.77 1.821-1.823 2.765-4.436 2.765-7.872v-4.87l.888 1 11.449 14.066h4.43V.156h-5.319zm-43.327 0H4.166C2.28.156.757 1.69.757 3.514v28.7a3.412 3.412 0 003.41 3.413H32.78a3.412 3.412 0 003.409-3.414v-28.7C36.179 1.69 34.657.157 32.77.157zm.866 17.713H18.135v15.523h-.71c0-8.195-6.608-14.811-14.791-14.811v-.712h15.5V2.346h.712c0 8.195 6.606 14.811 14.79 14.811v.712zM46.05 28.988h-2.387v-.622h5.496v.622h-2.387v6.183h-.722v-6.183zm8.883 6.182l-1.555-2.19a4.323 4.323 0 01-.544.034h-1.82v2.157h-.723v-6.805h2.543c.866 0 1.544.211 2.043.622.489.412.733.99.733 1.713 0 .534-.133.978-.4 1.345-.266.367-.655.634-1.154.79l1.665 2.335h-.788zm-.566-3.224c.355-.3.533-.711.533-1.256 0-.556-.178-.979-.533-1.268-.356-.3-.867-.445-1.544-.445h-1.81v3.414h1.81c.666.011 1.188-.145 1.544-.445zm7.207 1.401h-3.787l-.81 1.824h-.744l3.109-6.805h.71l3.11 6.805h-.756l-.832-1.824zm-.256-.578l-1.632-3.658-1.632 3.658h3.264zm2.953-4.403h2.765c.722 0 1.355.144 1.899.433.555.29.977.69 1.277 1.201.3.512.455 1.101.455 1.768 0 .656-.156 1.246-.455 1.768a3.17 3.17 0 01-1.277 1.201c-.556.29-1.189.434-1.9.434h-2.764v-6.805zm2.731 6.182c.6 0 1.122-.122 1.566-.356a2.58 2.58 0 001.033-.978c.244-.423.366-.9.366-1.446 0-.545-.122-1.023-.366-1.445a2.507 2.507 0 00-1.033-.979c-.444-.233-.966-.356-1.566-.356h-2.01v5.56h2.01zm5.287-6.182h.722v6.805h-.722v-6.805zm8.616 0v6.805h-.589l-4.364-5.526v5.526h-.721v-6.805h.588l4.375 5.526v-5.526h.71zm6.995 3.402h.689v2.591c-.322.278-.689.49-1.121.645a4.287 4.287 0 01-1.366.222c-.678 0-1.288-.144-1.832-.444a3.325 3.325 0 01-1.277-1.235 3.46 3.46 0 01-.467-1.779c0-.656.156-1.245.467-1.779.31-.523.733-.945 1.277-1.234.544-.3 1.154-.445 1.843-.445.522 0 1 .078 1.432.245a2.9 2.9 0 011.1.734l-.445.455c-.533-.533-1.221-.8-2.043-.8-.555 0-1.044.122-1.488.367a2.687 2.687 0 00-1.043 1.012 2.782 2.782 0 00-.378 1.445c0 .534.122 1.012.377 1.435.256.422.6.767 1.033 1.011.444.245.933.367 1.488.367.7 0 1.288-.177 1.777-.522v-2.29H87.9zm5.264-3.402h.722v6.805h-.722v-6.805zm3.353 6.616c-.466-.167-.822-.378-1.077-.645l.277-.556c.245.245.578.445.978.6.41.156.832.223 1.265.223.611 0 1.066-.111 1.366-.334.3-.222.455-.511.455-.867 0-.267-.077-.49-.244-.645a1.625 1.625 0 00-.61-.378 12.709 12.709 0 00-1-.29 10.36 10.36 0 01-1.221-.377 2.02 2.02 0 01-.778-.545c-.222-.245-.322-.578-.322-1.001 0-.345.09-.656.267-.934.177-.278.455-.512.833-.678.377-.167.844-.256 1.399-.256.388 0 .766.056 1.143.156.367.11.689.255.966.444l-.244.579a3.223 3.223 0 00-.91-.423 3.616 3.616 0 00-.955-.145c-.6 0-1.044.112-1.344.345-.3.234-.455.523-.455.89 0 .267.078.49.244.656.167.167.367.289.622.378.244.089.588.178 1 .289.499.122.899.245 1.21.367.31.122.566.3.777.545.211.244.322.567.322.99 0 .344-.089.656-.278.934-.188.277-.466.5-.855.667-.377.167-.855.244-1.41.244a3.932 3.932 0 01-1.421-.233zm8.516 0c-.466-.167-.821-.378-1.077-.645l.278-.556c.244.245.577.445.977.6.411.156.833.223 1.266.223.611 0 1.066-.111 1.366-.334.3-.222.455-.511.455-.867 0-.267-.078-.49-.244-.645a1.632 1.632 0 00-.611-.378 12.644 12.644 0 00-.999-.29 10.375 10.375 0 01-1.222-.377c-.3-.123-.566-.3-.777-.545-.211-.245-.322-.578-.322-1.001 0-.345.089-.656.266-.934.178-.278.456-.512.833-.678.378-.167.844-.256 1.399-.256.389 0 .767.056 1.144.156.378.11.7.255.966.444l-.244.579a3.23 3.23 0 00-.911-.423 3.616 3.616 0 00-.955-.145c-.599 0-1.043.112-1.343.345-.3.234-.455.523-.455.89 0 .267.077.49.244.656.166.167.366.289.622.378.244.089.588.178.999.289.5.122.899.245 1.21.367.311.122.567.3.778.545.211.244.322.567.322.99 0 .344-.089.656-.278.934-.189.277-.466.5-.844.667-.377.167-.855.244-1.41.244a3.918 3.918 0 01-1.433-.233zm5.541-6.616h.722v6.805h-.722v-6.805zm9.994 0v6.805h-.688v-5.449l-2.665 4.582h-.344l-2.665-4.548v5.415h-.689v-6.805h.589l2.953 5.048 2.921-5.048h.588zm6.796.622c.488.412.732.99.732 1.713 0 .723-.244 1.29-.732 1.701-.489.411-1.166.623-2.044.623h-1.821v2.146h-.721v-6.805h2.542c.867 0 1.544.211 2.044.622zm-.522 2.958c.355-.3.533-.711.533-1.245 0-.556-.178-.979-.533-1.268-.356-.3-.866-.445-1.544-.445h-1.81v3.403h1.81c.678 0 1.188-.145 1.544-.445zm2.809-3.58h.722v6.182h3.809v.623h-4.52v-6.805h-.011zm10.526 6.182v.623h-4.808v-6.805h4.664v.622h-3.942v2.425h3.509v.611h-3.509v2.524h4.086z" fill="#EAEAEA"/></svg>