<svg width="168" height="24" fill="none" xmlns="http://www.w3.org/2000/svg"><path d="M79.424.146V15.4H77.88V3.197L71.89 13.46h-.76l-6-10.197v12.136h-1.543V.146h1.331l6.628 11.31L78.107.146h1.317zM93.96 11.324h-8.5L83.63 15.4h-1.675L88.927.146h1.587L97.486 15.4h-1.697l-1.83-4.075zm-.593-1.31L89.71 1.822l-3.658 8.194h7.315zm17.067 5.385l-3.49-4.901c-.395.043-.797.066-1.221.066h-4.097v4.835h-1.609V.146h5.706c1.946 0 3.475.468 4.579 1.398 1.105.929 1.653 2.209 1.653 3.833 0 1.192-.299 2.194-.907 3.021-.6.82-1.463 1.412-2.582 1.778l3.724 5.23h-1.756V15.4zm-1.288-7.213c.798-.666 1.2-1.602 1.2-2.81 0-1.236-.402-2.18-1.2-2.845-.797-.658-1.953-.995-3.467-.995h-4.053v7.652h4.053c1.514 0 2.67-.336 3.467-1.002zm11.354.044l-3.116 3.16v4.01h-1.61V.146h1.61v9.218l8.954-9.218h1.851l-6.606 6.906 7.059 8.347h-1.916l-6.226-7.17zm21.552 5.772v1.397h-10.783V.146h10.461v1.398h-8.845v5.42h7.886V8.34h-7.886v5.662h9.167zm6.752-12.458h-5.362V.146h12.334v1.398h-5.362v13.862h-1.61V1.543zm10.257 13.438c-1.039-.366-1.844-.841-2.407-1.441l.629-1.244c.549.549 1.287 1.002 2.202 1.34a7.975 7.975 0 002.831.511c1.368 0 2.392-.249 3.072-.753.681-.505 1.025-1.149 1.025-1.954 0-.607-.183-1.097-.556-1.463a3.787 3.787 0 00-1.361-.841c-.534-.197-1.288-.41-2.246-.644-1.148-.292-2.063-.57-2.743-.841a4.611 4.611 0 01-1.756-1.229c-.49-.549-.731-1.302-.731-2.246 0-.768.204-1.47.607-2.1.409-.629 1.031-1.133 1.873-1.514.841-.38 1.887-.563 3.138-.563.87 0 1.726.117 2.56.358.834.242 1.558.571 2.166.995l-.542 1.288a7.449 7.449 0 00-2.048-.951 7.59 7.59 0 00-2.136-.315c-1.339 0-2.341.256-3.021.776-.673.52-1.01 1.178-1.01 1.997 0 .607.183 1.097.556 1.47.373.373.834.651 1.397.849.556.197 1.31.41 2.253.644 1.12.278 2.027.548 2.714.819.688.27 1.273.673 1.756 1.222.483.541.717 1.28.717 2.209a3.72 3.72 0 01-.622 2.1c-.417.629-1.046 1.133-1.909 1.506-.856.374-1.909.556-3.16.556a9.514 9.514 0 01-3.248-.54zM56.746.102h3.533v15.275h-3.533V.102zm-7.11 0v9.262L42.05.102h-3.497v8.42c0 1.42-.292 2.444-.878 3.102-.585.659-1.419.988-2.516.988-2.26 0-3.387-1.346-3.387-4.082V.102h-3.534V8.67c0 2.224.622 3.972 1.822 5.18 1.2 1.199 2.919 1.82 5.106 1.82s3.863-.621 5.106-1.82c1.2-1.2 1.822-2.92 1.822-5.18V5.465l.585.658 7.542 9.254h2.92V.102h-3.505zm-28.546 0H2.246C1.002.102 0 1.112 0 2.312v18.88a2.246 2.246 0 002.246 2.247h18.852a2.246 2.246 0 002.246-2.246V2.312c-.008-1.2-1.01-2.21-2.254-2.21zm.571 11.654H11.45v10.212h-.469a9.732 9.732 0 00-9.744-9.744v-.468H11.45V1.544h.468a9.732 9.732 0 009.744 9.744v.468zm8.179 7.315h-1.573v-.41h3.62v.41h-1.572v4.068h-.476V19.07zm5.852 4.068l-1.025-1.441a2.866 2.866 0 01-.358.022h-1.2v1.419h-.475v-4.477h1.675c.57 0 1.017.139 1.346.41.322.27.483.65.483 1.126 0 .351-.088.644-.264.885a1.44 1.44 0 01-.76.52l1.097 1.536h-.52zm-.373-2.122c.234-.197.35-.468.35-.826 0-.366-.116-.644-.35-.834-.235-.198-.571-.293-1.017-.293h-1.193v2.246h1.193c.439.007.782-.095 1.017-.293zm4.748.923h-2.495l-.534 1.199h-.49l2.048-4.477h.468l2.049 4.477h-.498l-.548-1.2zm-.169-.381l-1.075-2.407-1.075 2.407h2.15zm1.946-2.897h1.821c.476 0 .893.095 1.251.285.366.19.644.454.842.79.197.337.3.724.3 1.163 0 .432-.103.82-.3 1.163-.198.337-.483.6-.842.79-.365.19-.782.286-1.25.286h-1.822v-4.477zm1.8 4.067c.394 0 .738-.08 1.03-.234a1.7 1.7 0 00.681-.644c.161-.278.242-.592.242-.95 0-.36-.08-.674-.242-.952a1.65 1.65 0 00-.68-.644 2.19 2.19 0 00-1.032-.234H42.32v3.658h1.324zm3.482-4.067h.476v4.477h-.476v-4.477zm5.677 0v4.477h-.388l-2.875-3.636v3.636h-.475v-4.477h.387l2.883 3.636v-3.636h.468zm4.609 2.238h.453v1.705a2.296 2.296 0 01-.739.424 2.829 2.829 0 01-.9.146c-.446 0-.848-.095-1.206-.292a2.19 2.19 0 01-.842-.812 2.274 2.274 0 01-.307-1.17c0-.432.102-.82.307-1.171a2.14 2.14 0 01.842-.812c.358-.198.76-.293 1.214-.293.344 0 .658.051.944.161.285.11.526.27.724.483l-.293.3c-.35-.351-.804-.527-1.346-.527-.365 0-.687.08-.98.241a1.77 1.77 0 00-.688.666c-.168.285-.248.6-.248.951s.08.666.248.944c.169.278.395.505.68.666.293.16.615.241.98.241.462 0 .85-.117 1.171-.344V20.9h-.014zm3.467-2.238h.475v4.477h-.475v-4.477zm2.21 4.352c-.308-.11-.542-.248-.71-.424l.183-.366c.16.161.38.293.644.395.27.103.548.147.834.147.402 0 .702-.073.9-.22a.683.683 0 00.3-.57.558.558 0 00-.162-.425 1.07 1.07 0 00-.402-.248 8.353 8.353 0 00-.658-.19 6.866 6.866 0 01-.805-.25 1.329 1.329 0 01-.512-.358c-.147-.16-.212-.38-.212-.658 0-.227.058-.432.175-.615.117-.183.3-.336.549-.446.249-.11.556-.168.922-.168.256 0 .504.036.753.102.241.073.454.169.637.293l-.161.38a2.127 2.127 0 00-.6-.278 2.384 2.384 0 00-.63-.095c-.394 0-.687.073-.885.227a.708.708 0 00-.3.585c0 .176.052.322.162.432.11.11.24.19.41.248.16.059.387.118.657.19.33.081.593.162.798.242.205.08.373.198.512.359.139.16.212.373.212.65 0 .227-.058.432-.183.615-.124.183-.307.33-.563.44-.249.109-.563.16-.93.16a2.595 2.595 0 01-.935-.154zm5.61 0c-.307-.11-.541-.248-.71-.424l.183-.366c.161.161.38.293.644.395.27.103.549.147.834.147.402 0 .702-.073.9-.22a.683.683 0 00.3-.57.562.562 0 00-.161-.425c-.11-.11-.242-.19-.403-.248a8.34 8.34 0 00-.658-.19 6.866 6.866 0 01-.805-.25 1.329 1.329 0 01-.512-.358c-.139-.16-.212-.38-.212-.658 0-.227.058-.432.176-.615.117-.183.3-.336.548-.446.249-.11.556-.168.922-.168.256 0 .505.036.754.102.248.073.46.169.636.293l-.161.38a2.127 2.127 0 00-.6-.278 2.384 2.384 0 00-.629-.095c-.395 0-.688.073-.885.227a.709.709 0 00-.3.585c0 .176.051.322.16.432.11.11.242.19.41.248.161.059.388.118.659.19.33.081.592.162.797.242.205.08.373.198.512.359.14.16.213.373.213.65 0 .227-.059.432-.183.615-.125.183-.308.33-.556.44-.25.109-.564.16-.93.16a2.583 2.583 0 01-.943-.154zm3.651-4.352h.475v4.477h-.475v-4.477zm6.583 0v4.477h-.453v-3.585l-1.756 3.014h-.227l-1.755-2.992v3.563h-.454v-4.477h.388l1.946 3.321 1.924-3.321h.387zm4.477.409c.323.271.484.651.484 1.127s-.161.849-.483 1.12c-.322.27-.768.409-1.346.409h-1.2v1.412h-.475v-4.477h1.675c.57 0 1.017.139 1.346.41zm-.343 1.946c.234-.197.351-.468.351-.819 0-.366-.117-.644-.35-.834-.235-.198-.572-.293-1.018-.293h-1.192v2.239h1.192c.447 0 .783-.095 1.017-.293zm1.851-2.355h.475v4.067h2.51v.41h-2.978v-4.477h-.007zm6.934 4.068v.409h-3.167v-4.477h3.072v.41H89.16v1.594h2.312v.402H89.16v1.661h2.692z" fill="#EAEAEA"/></svg>