<svg width="23" height="43" fill="none" xmlns="http://www.w3.org/2000/svg"><path opacity=".7" d="M9.288 40l-2.24-3.15a7.099 7.099 0 01-.784.042H3.632V40H2.596v-9.8h3.668c1.25 0 2.23.299 2.94.896s1.064 1.419 1.064 2.464c0 .765-.196 1.414-.588 1.946-.383.523-.933.9-1.652 1.134L10.422 40H9.288zm-3.052-3.99c.97 0 1.713-.215 2.226-.644.513-.43.77-1.031.77-1.806 0-.793-.257-1.4-.77-1.82-.513-.43-1.255-.644-2.226-.644H3.632v4.914h2.604zm10.425 4.074c-1.27 0-2.259-.364-2.968-1.092-.71-.728-1.064-1.787-1.064-3.178V30.2h1.036v5.572c0 1.139.257 1.988.77 2.548s1.255.84 2.226.84c.98 0 1.727-.28 2.24-.84.514-.56.77-1.41.77-2.548V30.2h1.008v5.614c0 1.39-.354 2.45-1.064 3.178-.7.728-1.684 1.092-2.954 1.092z" fill="#fff"/><path d="M20.5 12.517c0 3.165.002 6.33 0 9.496-.002 1.433-.828 2.58-2.123 2.927a3.53 3.53 0 01-.898.105c-2.674.008-8.849.008-11.523.004-1.76-.004-2.993-1.232-3.007-2.996-.01-1.21-.002-2.418-.002-3.627 0-.043 0-.087.004-.13.036-.357.283-.589.613-.577.328.012.562.26.564.622.005.905.002 1.81.002 2.714v.939c.002 1.16.708 1.874 1.857 1.875 2.544 0 8.59.001 11.134-.002.258 0 .52.002.775-.037a1.675 1.675 0 001.415-1.626c.009-.365.003-.73.003-1.095V3.03c0-.877-.458-1.544-1.222-1.76a2.206 2.206 0 00-.589-.077c-2.682-.003-8.865-.003-11.548-.001-1.103.001-1.823.723-1.825 1.827-.002 1.226 0 2.452-.001 3.678 0 .353-.157.576-.445.648a.57.57 0 01-.703-.412 1.253 1.253 0 01-.033-.31c-.002-1.2-.006-2.4 0-3.6C2.956 1.52 3.865.357 5.263.065a3.59 3.59 0 01.723-.061C8.642-.001 14.8-.001 17.456.002c1.516.001 2.646.874 2.964 2.295.06.269.076.552.076.828.006 3.13.004 6.261.004 9.392z" fill="#EBE7E5"/><path d="M11.276 13.205h-.34c-2.545 0-7.682-.063-10.227-.064-.41 0-.638-.158-.698-.476a.571.571 0 01.5-.69c.112-.014.225-.011.338-.011 2.492 0 7.577.063 10.07.063h.369c-.2-.242-.356-.433-.514-.622-.267-.32-.54-.634-.803-.957-.253-.31-.235-.656.034-.88.265-.22.617-.176.87.122.707.834 1.411 1.67 2.113 2.508.23.274.237.538.017.802-.708.845-1.42 1.686-2.13 2.528-.17.202-.38.3-.645.227-.23-.063-.406-.22-.41-.45a.96.96 0 01.18-.563c.367-.473.77-.918 1.158-1.373.031-.038.057-.08.118-.164z" fill="#EBE7E5"/></svg>